<?xml version="1.0"?>
<svg width="250mm" height="200mm" viewBox="0 0   3200    1960"
     xmlns="http://www.w3.org/2000/svg"
     xmlns:xlink="http://www.w3.org/1999/xlink"
     xmlns:ev="http://www.w3.org/2001/xml-events">
<g font-family="Verdana" font-size="8" >
  <line x1="  2100" y1="   430" x2="  1300" y2="    30" style = "stroke:silver  ;"/>
  <line x1="   300" y1="  1550" x2="   300" y2="  1630" style = "stroke:silver  ;"/>
  <line x1="   300" y1="  1550" x2="   300" y2="  1710" style = "stroke:silver  ;"/>
  <line x1="   300" y1="  1550" x2="   300" y2="  1790" style = "stroke:silver  ;"/>
  <line x1="   300" y1="  1550" x2="   300" y2="  1870" style = "stroke:silver  ;"/>
  <line x1="   300" y1="  1550" x2="   300" y2="  1950" style = "stroke:silver  ;"/>
  <line x1="   300" y1="  1630" x2="   300" y2="  1710" style = "stroke:silver  ;"/>
  <line x1="   300" y1="  1630" x2="   300" y2="  1790" style = "stroke:silver  ;"/>
  <line x1="   300" y1="  1630" x2="   300" y2="  1870" style = "stroke:silver  ;"/>
  <line x1="   300" y1="  1630" x2="   300" y2="  1950" style = "stroke:silver  ;"/>
  <line x1="   300" y1="  1710" x2="   300" y2="  1790" style = "stroke:silver  ;"/>
  <line x1="   300" y1="  1710" x2="   300" y2="  1870" style = "stroke:silver  ;"/>
  <line x1="   300" y1="  1710" x2="   300" y2="  1950" style = "stroke:silver  ;"/>
  <line x1="   300" y1="  1790" x2="   300" y2="  1870" style = "stroke:silver  ;"/>
  <line x1="   300" y1="  1790" x2="   300" y2="  1950" style = "stroke:silver  ;"/>
  <line x1="   300" y1="  1870" x2="   300" y2="  1950" style = "stroke:silver  ;"/>
  <line x1="  2400" y1="   910" x2="  1050" y2="    30" style = "stroke:silver  ;"/>
  <line x1="  2400" y1="   950" x2="  1050" y2="   110" style = "stroke:silver  ;"/>
  <line x1="  2400" y1="   990" x2="  1050" y2="   190" style = "stroke:silver  ;"/>
  <line x1="  2400" y1="  1030" x2="  1050" y2="   270" style = "stroke:silver  ;"/>
  <line x1="  2400" y1="  1070" x2="  1050" y2="   350" style = "stroke:silver  ;"/>
  <line x1="  2400" y1="  1110" x2="   900" y2="   430" style = "stroke:silver  ;"/>
  <line x1="  2400" y1="  1270" x2="   800" y2="    30" style = "stroke:silver  ;"/>
  <line x1="  2400" y1="  1310" x2="   800" y2="   110" style = "stroke:silver  ;"/>
  <line x1="  2400" y1="  1350" x2="   800" y2="   190" style = "stroke:silver  ;"/>
  <line x1="  2400" y1="  1390" x2="   800" y2="   270" style = "stroke:silver  ;"/>
  <line x1="  2400" y1="  1430" x2="   800" y2="   350" style = "stroke:silver  ;"/>
  <line x1="  2400" y1="  1470" x2="   600" y2="   430" style = "stroke:silver  ;"/>
  <line x1="   900" y1="  1230" x2="  2050" y2="   750" style = "stroke:silver  ;"/>
  <line x1="  2100" y1="   470" x2="  1300" y2="   110" style = "stroke:silver  ;"/>
  <line x1="  2100" y1="   510" x2="  1300" y2="   190" style = "stroke:silver  ;"/>
  <line x1="  2100" y1="   550" x2="  1300" y2="   270" style = "stroke:silver  ;"/>
  <line x1="  2100" y1="   590" x2="  1300" y2="   350" style = "stroke:silver  ;"/>
  <rect x="  2000" y="   420" width="   200" height="    20" style = "fill:chartreuse; stroke: Black;"/>     1
  <text x="  2002" y="   433">SPACE1-1</text>
  <rect x="   200" y="  1540" width="   200" height="    20" style = "fill:snow; stroke: Black;"/>     6
  <text x="   202" y="  1553">OutdoorAir:NodeList</text>
  <rect x="   200" y="  1620" width="   200" height="    20" style = "fill:snow; stroke: Black;"/>     7
  <text x="   202" y="  1633">OutdoorAir:NodeList</text>
  <rect x="   200" y="  1700" width="   200" height="    20" style = "fill:snow; stroke: Black;"/>     8
  <text x="   202" y="  1713">OutdoorAir:NodeList</text>
  <rect x="   200" y="  1780" width="   200" height="    20" style = "fill:snow; stroke: Black;"/>     9
  <text x="   202" y="  1793">OutdoorAir:NodeList</text>
  <rect x="   200" y="  1860" width="   200" height="    20" style = "fill:snow; stroke: Black;"/>    10
  <text x="   202" y="  1873">OutdoorAir:NodeList</text>
  <rect x="   200" y="  1940" width="   200" height="    20" style = "fill:snow; stroke: Black;"/>    11
  <text x="   202" y="  1953">OutdoorAir:NodeList</text>
  <rect x="   800" y="   860" width="   200" height="    20" style = "fill:wheat; stroke: Black;"/>    22
  <text  x="   802" y="   868">HOT WATER LOOP HW SUPPLY SIDE
  <tspan x="   802" y="   876">BYPASS PIPE</tspan></text>
  <rect x="  1400" y="   860" width="   200" height="    20" style = "fill:wheat; stroke: Black;"/>    23
  <text x="  1402" y="   873">HOT WATER LOOP HW SUPPLY OUTLET PIPE</text>
  <rect x="  1700" y="   860" width="   200" height="    20" style = "fill:wheat; stroke: Black;"/>    24
  <text x="  1702" y="   873">HOT WATER LOOP HW DEMAND INLET PIPE</text>
  <rect x="  2300" y="   860" width="   200" height="    20" style = "fill:wheat; stroke: Black;"/>    25
  <text  x="  2302" y="   868">HOT WATER LOOP HW DEMAND SIDE
  <tspan x="  2302" y="   876">BYPASS PIPE</tspan></text>
  <rect x="  2900" y="  1100" width="   200" height="    20" style = "fill:wheat; stroke: Black;"/>    26
  <text x="  2902" y="  1113">HOT WATER LOOP HW DEMAND OUTLET PIPE</text>
  <rect x="   800" y="  1180" width="   200" height="    20" style = "fill:wheat; stroke: Black;"/>    27
  <text  x="   802" y="  1188">CHILLED WATER LOOP CHW SUPPLY SIDE
  <tspan x="   802" y="  1196">BYPASS PIPE</tspan></text>
  <rect x="  1400" y="  1220" width="   200" height="    20" style = "fill:wheat; stroke: Black;"/>    28
  <text  x="  1402" y="  1228">CHILLED WATER LOOP CHW SUPPLY
  <tspan x="  1402" y="  1236">OUTLET PIPE</tspan></text>
  <rect x="  1700" y="  1220" width="   200" height="    20" style = "fill:wheat; stroke: Black;"/>    29
  <text  x="  1702" y="  1228">CHILLED WATER LOOP CHW DEMAND INLET
  <tspan x="  1702" y="  1236">PIPE</tspan></text>
  <rect x="  2300" y="  1220" width="   200" height="    20" style = "fill:wheat; stroke: Black;"/>    30
  <text  x="  2302" y="  1228">CHILLED WATER LOOP CHW DEMAND SIDE
  <tspan x="  2302" y="  1236">BYPASS PIPE</tspan></text>
  <rect x="  2900" y="  1460" width="   200" height="    20" style = "fill:wheat; stroke: Black;"/>    31
  <text  x="  2902" y="  1468">CHILLED WATER LOOP CHW DEMAND
  <tspan x="  2902" y="  1476">OUTLET PIPE</tspan></text>
  <rect x="  1200" y="   700" width="   200" height="    20" style = "fill:wheat; stroke: Black;"/>    32
  <text  x="  1202" y="   708">CHILLED WATER LOOP CNDW SUPPLY
  <tspan x="  1202" y="   716">OUTLET PIPE</tspan></text>
  <rect x="   700" y="   660" width="   200" height="    20" style = "fill:wheat; stroke: Black;"/>    33
  <text  x="   702" y="   668">CHILLED WATER LOOP CNDW SUPPLY SIDE
  <tspan x="   702" y="   676">BYPASS PIPE</tspan></text>
  <rect x="  1450" y="   700" width="   200" height="    20" style = "fill:wheat; stroke: Black;"/>    34
  <text  x="  1452" y="   708">CHILLED WATER LOOP CNDW DEMAND
  <tspan x="  1452" y="   716">INLET PIPE</tspan></text>
  <rect x="  1950" y="   700" width="   200" height="    20" style = "fill:wheat; stroke: Black;"/>    35
  <text  x="  1952" y="   708">CHILLED WATER LOOP CNDW DEMAND SIDE
  <tspan x="  1952" y="   716">BYPASS PIPE</tspan></text>
  <rect x="  2450" y="   740" width="   200" height="    20" style = "fill:wheat; stroke: Black;"/>    36
  <text  x="  2452" y="   748">CHILLED WATER LOOP CNDW DEMAND
  <tspan x="  2452" y="   756">OUTLET PIPE</tspan></text>
  <rect x="  2000" y="   860" width="   200" height="    20" style = "fill:wheat; stroke: Black;"/>    37
  <text x="  2002" y="   873">HOT WATER LOOP HW DEMAND SPLITTER</text>
  <rect x="  2600" y="  1100" width="   200" height="    20" style = "fill:wheat; stroke: Black;"/>    38
  <text x="  2602" y="  1113">HOT WATER LOOP HW DEMAND MIXER</text>
  <rect x="   500" y="   820" width="   200" height="    20" style = "fill:wheat; stroke: Black;"/>    39
  <text x="   502" y="   833">HOT WATER LOOP HW SUPPLY SPLITTER</text>
  <rect x="  1100" y="   860" width="   200" height="    20" style = "fill:wheat; stroke: Black;"/>    40
  <text x="  1102" y="   873">HOT WATER LOOP HW SUPPLY MIXER</text>
  <rect x="  2000" y="  1220" width="   200" height="    20" style = "fill:wheat; stroke: Black;"/>    41
  <text  x="  2002" y="  1228">CHILLED WATER LOOP CHW DEMAND
  <tspan x="  2002" y="  1236">SPLITTER</tspan></text>
  <rect x="  2600" y="  1460" width="   200" height="    20" style = "fill:wheat; stroke: Black;"/>    42
  <text x="  2602" y="  1473">CHILLED WATER LOOP CHW DEMAND MIXER</text>
  <rect x="   500" y="  1180" width="   200" height="    20" style = "fill:wheat; stroke: Black;"/>    43
  <text  x="   502" y="  1188">CHILLED WATER LOOP CHW SUPPLY
  <tspan x="   502" y="  1196">SPLITTER</tspan></text>
  <rect x="  1100" y="  1220" width="   200" height="    20" style = "fill:wheat; stroke: Black;"/>    44
  <text x="  1102" y="  1233">CHILLED WATER LOOP CHW SUPPLY MIXER</text>
  <rect x="  1700" y="   700" width="   200" height="    20" style = "fill:wheat; stroke: Black;"/>    45
  <text  x="  1702" y="   708">CHILLED WATER LOOP CNDW DEMAND
  <tspan x="  1702" y="   716">SPLITTER</tspan></text>
  <rect x="  2200" y="   740" width="   200" height="    20" style = "fill:wheat; stroke: Black;"/>    46
  <text x="  2202" y="   753">CHILLED WATER LOOP CNDW DEMAND MIXER</text>
  <rect x="   450" y="   660" width="   200" height="    20" style = "fill:wheat; stroke: Black;"/>    47
  <text  x="   452" y="   668">CHILLED WATER LOOP CNDW SUPPLY
  <tspan x="   452" y="   676">SPLITTER</tspan></text>
  <rect x="   950" y="   700" width="   200" height="    20" style = "fill:wheat; stroke: Black;"/>    48
  <text x="   952" y="   713">CHILLED WATER LOOP CNDW SUPPLY MIXER</text>
  <rect x="  1400" y="   420" width="   200" height="    20" style = "fill:wheat; stroke: Black;"/>    49
  <text x="  1402" y="   433">DOAS ZONE SPLITTER</text>
  <rect x="  1700" y="   420" width="   200" height="    20" style = "fill:wheat; stroke: Black;"/>    50
  <text x="  1702" y="   433">SPACE1-1 DOAS AIR TERMINAL</text>
  <rect x="  1700" y="   460" width="   200" height="    20" style = "fill:wheat; stroke: Black;"/>    51
  <text x="  1702" y="   473">SPACE2-1 DOAS AIR TERMINAL</text>
  <rect x="  1700" y="   500" width="   200" height="    20" style = "fill:wheat; stroke: Black;"/>    52
  <text x="  1702" y="   513">SPACE3-1 DOAS AIR TERMINAL</text>
  <rect x="  1700" y="   540" width="   200" height="    20" style = "fill:wheat; stroke: Black;"/>    53
  <text x="  1702" y="   553">SPACE4-1 DOAS AIR TERMINAL</text>
  <rect x="  1700" y="   580" width="   200" height="    20" style = "fill:wheat; stroke: Black;"/>    54
  <text x="  1702" y="   593">SPACE5-1 DOAS AIR TERMINAL</text>
  <rect x="   200" y="    20" width="   200" height="    20" style = "fill:lawngreen; stroke: Black;"/>    55
  <text x="   202" y="    33">SPACE1-1 OA MIXING BOX</text>
  <rect x="   200" y="   100" width="   200" height="    20" style = "fill:lawngreen; stroke: Black;"/>    56
  <text x="   202" y="   113">SPACE2-1 OA MIXING BOX</text>
  <rect x="   200" y="   180" width="   200" height="    20" style = "fill:lawngreen; stroke: Black;"/>    57
  <text x="   202" y="   193">SPACE3-1 OA MIXING BOX</text>
  <rect x="   200" y="   260" width="   200" height="    20" style = "fill:lawngreen; stroke: Black;"/>    58
  <text x="   202" y="   273">SPACE4-1 OA MIXING BOX</text>
  <rect x="   200" y="   340" width="   200" height="    20" style = "fill:lawngreen; stroke: Black;"/>    59
  <text x="   202" y="   353">SPACE5-1 OA MIXING BOX</text>
  <rect x="   200" y="   420" width="   200" height="    20" style = "fill:lawngreen; stroke: Black;"/>    60
  <text x="   202" y="   433">DOAS OA MIXING BOX</text>
  <rect x="  2300" y="   900" width="   200" height="    20" style = "fill:salmon; stroke: Black;"/>    61
  <text x="  2302" y="   913">SPACE1-1 HEATING COIL</text>
  <rect x="   950" y="    20" width="   200" height="    20" style = "fill:salmon; stroke: Black;"/>    62
  <text x="   952" y="    33">SPACE1-1 HEATING COIL</text>
  <rect x="  2300" y="   940" width="   200" height="    20" style = "fill:salmon; stroke: Black;"/>    63
  <text x="  2302" y="   953">SPACE2-1 HEATING COIL</text>
  <rect x="   950" y="   100" width="   200" height="    20" style = "fill:salmon; stroke: Black;"/>    64
  <text x="   952" y="   113">SPACE2-1 HEATING COIL</text>
  <rect x="  2300" y="   980" width="   200" height="    20" style = "fill:salmon; stroke: Black;"/>    65
  <text x="  2302" y="   993">SPACE3-1 HEATING COIL</text>
  <rect x="   950" y="   180" width="   200" height="    20" style = "fill:salmon; stroke: Black;"/>    66
  <text x="   952" y="   193">SPACE3-1 HEATING COIL</text>
  <rect x="  2300" y="  1020" width="   200" height="    20" style = "fill:salmon; stroke: Black;"/>    67
  <text x="  2302" y="  1033">SPACE4-1 HEATING COIL</text>
  <rect x="   950" y="   260" width="   200" height="    20" style = "fill:salmon; stroke: Black;"/>    68
  <text x="   952" y="   273">SPACE4-1 HEATING COIL</text>
  <rect x="  2300" y="  1060" width="   200" height="    20" style = "fill:salmon; stroke: Black;"/>    69
  <text x="  2302" y="  1073">SPACE5-1 HEATING COIL</text>
  <rect x="   950" y="   340" width="   200" height="    20" style = "fill:salmon; stroke: Black;"/>    70
  <text x="   952" y="   353">SPACE5-1 HEATING COIL</text>
  <rect x="  2300" y="  1100" width="   200" height="    20" style = "fill:salmon; stroke: Black;"/>    71
  <text x="  2302" y="  1113">DOAS HEATING COIL</text>
  <rect x="   800" y="   420" width="   200" height="    20" style = "fill:salmon; stroke: Black;"/>    72
  <text x="   802" y="   433">DOAS HEATING COIL</text>
  <rect x="  2300" y="  1260" width="   200" height="    20" style = "fill:skyblue; stroke: Black;"/>    73
  <text x="  2302" y="  1273">SPACE1-1 COOLING COIL</text>
  <rect x="   700" y="    20" width="   200" height="    20" style = "fill:skyblue; stroke: Black;"/>    74
  <text x="   702" y="    33">SPACE1-1 COOLING COIL</text>
  <rect x="  2300" y="  1300" width="   200" height="    20" style = "fill:skyblue; stroke: Black;"/>    75
  <text x="  2302" y="  1313">SPACE2-1 COOLING COIL</text>
  <rect x="   700" y="   100" width="   200" height="    20" style = "fill:skyblue; stroke: Black;"/>    76
  <text x="   702" y="   113">SPACE2-1 COOLING COIL</text>
  <rect x="  2300" y="  1340" width="   200" height="    20" style = "fill:skyblue; stroke: Black;"/>    77
  <text x="  2302" y="  1353">SPACE3-1 COOLING COIL</text>
  <rect x="   700" y="   180" width="   200" height="    20" style = "fill:skyblue; stroke: Black;"/>    78
  <text x="   702" y="   193">SPACE3-1 COOLING COIL</text>
  <rect x="  2300" y="  1380" width="   200" height="    20" style = "fill:skyblue; stroke: Black;"/>    79
  <text x="  2302" y="  1393">SPACE4-1 COOLING COIL</text>
  <rect x="   700" y="   260" width="   200" height="    20" style = "fill:skyblue; stroke: Black;"/>    80
  <text x="   702" y="   273">SPACE4-1 COOLING COIL</text>
  <rect x="  2300" y="  1420" width="   200" height="    20" style = "fill:skyblue; stroke: Black;"/>    81
  <text x="  2302" y="  1433">SPACE5-1 COOLING COIL</text>
  <rect x="   700" y="   340" width="   200" height="    20" style = "fill:skyblue; stroke: Black;"/>    82
  <text x="   702" y="   353">SPACE5-1 COOLING COIL</text>
  <rect x="  2300" y="  1460" width="   200" height="    20" style = "fill:skyblue; stroke: Black;"/>    83
  <text x="  2302" y="  1473">DOAS COOLING COIL</text>
  <rect x="   500" y="   420" width="   200" height="    20" style = "fill:skyblue; stroke: Black;"/>    84
  <text x="   502" y="   433">DOAS COOLING COIL</text>
  <rect x="  1100" y="   420" width="   200" height="    20" style = "fill:silver; stroke: Black;"/>    85
  <text x="  1102" y="   433">DOAS SUPPLY FAN</text>
  <rect x="   450" y="    20" width="   200" height="    20" style = "fill:silver; stroke: Black;"/>    86
  <text x="   452" y="    33">SPACE1-1 SUPPLY FAN</text>
  <rect x="   450" y="   100" width="   200" height="    20" style = "fill:silver; stroke: Black;"/>    87
  <text x="   452" y="   113">SPACE2-1 SUPPLY FAN</text>
  <rect x="   450" y="   180" width="   200" height="    20" style = "fill:silver; stroke: Black;"/>    88
  <text x="   452" y="   193">SPACE3-1 SUPPLY FAN</text>
  <rect x="   450" y="   260" width="   200" height="    20" style = "fill:silver; stroke: Black;"/>    89
  <text x="   452" y="   273">SPACE4-1 SUPPLY FAN</text>
  <rect x="   450" y="   340" width="   200" height="    20" style = "fill:silver; stroke: Black;"/>    90
  <text x="   452" y="   353">SPACE5-1 SUPPLY FAN</text>
  <rect x="  2300" y="   580" width="   200" height="    20" style = "fill:wheat; stroke: Black;"/>    93
  <text x="  2302" y="   593">DOAS ZONE MIXER</text>
  <rect x="   500" y="  1940" width="   200" height="    20" style = "fill:paleturquoise; stroke: Black;"/>    95
  <text x="   502" y="  1953">DOAS HEAT RECOVERY</text>
  <rect x="   800" y="   820" width="   200" height="    20" style = "fill:indianred; stroke: Black;"/>    97
  <text x="   802" y="   833">MAIN BOILER</text>
  <rect x="   800" y="  1220" width="   200" height="    20" style = "fill:powderblue; stroke: Black;"/>    98
  <text x="   802" y="  1233">MAIN CHILLER</text>
  <rect x="  1950" y="   740" width="   200" height="    20" style = "fill:powderblue; stroke: Black;"/>    99
  <text x="  1952" y="   753">MAIN CHILLER</text>
  <rect x="   700" y="   700" width="   200" height="    20" style = "fill:pink; stroke: Black;"/>   100
  <text x="   702" y="   713">MAIN TOWER</text>
  <rect x="   200" y="   660" width="   200" height="    20" style = "fill:springgreen; stroke: Black;"/>   101
  <text x="   202" y="   673">CHILLED WATER LOOP CNDW SUPPLY PUMP</text>
  <rect x="   200" y="   820" width="   200" height="    20" style = "fill:springgreen; stroke: Black;"/>   102
  <text x="   202" y="   833">HOT WATER LOOP HW SUPPLY PUMP</text>
  <rect x="   200" y="  1180" width="   200" height="    20" style = "fill:springgreen; stroke: Black;"/>   103
  <text x="   202" y="  1193">CHILLED WATER LOOP CHW SUPPLY PUMP</text>
  <rect x="  2000" y="   460" width="   200" height="    20" style = "fill:chartreuse; stroke: Black;"/>   104
  <text x="  2002" y="   473">SPACE2-1</text>
  <rect x="  2000" y="   500" width="   200" height="    20" style = "fill:chartreuse; stroke: Black;"/>   105
  <text x="  2002" y="   513">SPACE3-1</text>
  <rect x="  2000" y="   540" width="   200" height="    20" style = "fill:chartreuse; stroke: Black;"/>   106
  <text x="  2002" y="   553">SPACE4-1</text>
  <rect x="  2000" y="   580" width="   200" height="    20" style = "fill:chartreuse; stroke: Black;"/>   107
  <text x="  2002" y="   593">SPACE5-1</text>
  <rect x="  1200" y="    20" width="   200" height="    20" style = "fill:chartreuse; stroke: Black;"/>   108
  <text x="  1202" y="    33">SPACE1-1</text>
  <rect x="  1200" y="   100" width="   200" height="    20" style = "fill:chartreuse; stroke: Black;"/>   109
  <text x="  1202" y="   113">SPACE2-1</text>
  <rect x="  1200" y="   180" width="   200" height="    20" style = "fill:chartreuse; stroke: Black;"/>   110
  <text x="  1202" y="   193">SPACE3-1</text>
  <rect x="  1200" y="   260" width="   200" height="    20" style = "fill:chartreuse; stroke: Black;"/>   111
  <text x="  1202" y="   273">SPACE4-1</text>
  <rect x="  1200" y="   340" width="   200" height="    20" style = "fill:chartreuse; stroke: Black;"/>   112
  <text x="  1202" y="   353">SPACE5-1</text>
  <line x1="   400" y1="  1950" x2="   500" y2="  1950" style = "stroke: Black;"/>
  <line x1="  1000" y1="   870" x2="  1100" y2="   870" style = "stroke: Black;"/>
  <line x1="  1600" y1="   870" x2="  1700" y2="   870" style = "stroke: Black;"/>
  <line x1="  1900" y1="   870" x2="  2000" y2="   870" style = "stroke: Black;"/>
  <line x1="  2500" y1="   870" x2="  2600" y2="  1110" style = "stroke: Black;"/>
  <line x1="  1000" y1="  1190" x2="  1100" y2="  1230" style = "stroke: Black;"/>
  <line x1="  1600" y1="  1230" x2="  1700" y2="  1230" style = "stroke: Black;"/>
  <line x1="  1900" y1="  1230" x2="  2000" y2="  1230" style = "stroke: Black;"/>
  <line x1="  2500" y1="  1230" x2="  2600" y2="  1470" style = "stroke: Black;"/>
  <line x1="  1400" y1="   710" x2="  1450" y2="   710" style = "stroke: Black;"/>
  <line x1="   900" y1="   670" x2="   950" y2="   710" style = "stroke: Black;"/>
  <line x1="  1650" y1="   710" x2="  1700" y2="   710" style = "stroke: Black;"/>
  <line x1="  2150" y1="   710" x2="  2200" y2="   750" style = "stroke: Black;"/>
  <line x1="  2200" y1="   870" x2="  2300" y2="   870" style = "stroke: Black;"/>
  <line x1="  2200" y1="   870" x2="  2300" y2="   910" style = "stroke: Black;"/>
  <line x1="  2200" y1="   870" x2="  2300" y2="   950" style = "stroke: Black;"/>
  <line x1="  2200" y1="   870" x2="  2300" y2="   990" style = "stroke: Black;"/>
  <line x1="  2200" y1="   870" x2="  2300" y2="  1030" style = "stroke: Black;"/>
  <line x1="  2200" y1="   870" x2="  2300" y2="  1070" style = "stroke: Black;"/>
  <line x1="  2200" y1="   870" x2="  2300" y2="  1110" style = "stroke: Black;"/>
  <line x1="  2800" y1="  1110" x2="  2900" y2="  1110" style = "stroke: Black;"/>
  <line x1="   700" y1="   830" x2="   800" y2="   830" style = "stroke: Black;"/>
  <line x1="   700" y1="   830" x2="   800" y2="   870" style = "stroke: Black;"/>
  <line x1="  1300" y1="   870" x2="  1400" y2="   870" style = "stroke: Black;"/>
  <line x1="  2200" y1="  1230" x2="  2300" y2="  1230" style = "stroke: Black;"/>
  <line x1="  2200" y1="  1230" x2="  2300" y2="  1270" style = "stroke: Black;"/>
  <line x1="  2200" y1="  1230" x2="  2300" y2="  1310" style = "stroke: Black;"/>
  <line x1="  2200" y1="  1230" x2="  2300" y2="  1350" style = "stroke: Black;"/>
  <line x1="  2200" y1="  1230" x2="  2300" y2="  1390" style = "stroke: Black;"/>
  <line x1="  2200" y1="  1230" x2="  2300" y2="  1430" style = "stroke: Black;"/>
  <line x1="  2200" y1="  1230" x2="  2300" y2="  1470" style = "stroke: Black;"/>
  <line x1="  2800" y1="  1470" x2="  2900" y2="  1470" style = "stroke: Black;"/>
  <line x1="   700" y1="  1190" x2="   800" y2="  1190" style = "stroke: Black;"/>
  <line x1="   700" y1="  1190" x2="   800" y2="  1230" style = "stroke: Black;"/>
  <line x1="  1300" y1="  1230" x2="  1400" y2="  1230" style = "stroke: Black;"/>
  <line x1="  1900" y1="   710" x2="  1950" y2="   710" style = "stroke: Black;"/>
  <line x1="  1900" y1="   710" x2="  1950" y2="   750" style = "stroke: Black;"/>
  <line x1="  2400" y1="   750" x2="  2450" y2="   750" style = "stroke: Black;"/>
  <line x1="   650" y1="   670" x2="   700" y2="   670" style = "stroke: Black;"/>
  <line x1="   650" y1="   670" x2="   700" y2="   710" style = "stroke: Black;"/>
  <line x1="  1150" y1="   710" x2="  1200" y2="   710" style = "stroke: Black;"/>
  <line x1="  1600" y1="   430" x2="  1700" y2="   430" style = "stroke: Black;"/>
  <line x1="  1600" y1="   430" x2="  1700" y2="   470" style = "stroke: Black;"/>
  <line x1="  1600" y1="   430" x2="  1700" y2="   510" style = "stroke: Black;"/>
  <line x1="  1600" y1="   430" x2="  1700" y2="   550" style = "stroke: Black;"/>
  <line x1="  1600" y1="   430" x2="  1700" y2="   590" style = "stroke: Black;"/>
  <line x1="  1900" y1="   430" x2="  2000" y2="   430" style = "stroke: Black;"/>
  <line x1="  1900" y1="   470" x2="  2000" y2="   470" style = "stroke: Black;"/>
  <line x1="  1900" y1="   510" x2="  2000" y2="   510" style = "stroke: Black;"/>
  <line x1="  1900" y1="   550" x2="  2000" y2="   550" style = "stroke: Black;"/>
  <line x1="  1900" y1="   590" x2="  2000" y2="   590" style = "stroke: Black;"/>
  <line x1="   400" y1="    30" x2="   450" y2="    30" style = "stroke: Black;"/>
  <line x1="   400" y1="   110" x2="   450" y2="   110" style = "stroke: Black;"/>
  <line x1="   400" y1="   190" x2="   450" y2="   190" style = "stroke: Black;"/>
  <line x1="   400" y1="   270" x2="   450" y2="   270" style = "stroke: Black;"/>
  <line x1="   400" y1="   350" x2="   450" y2="   350" style = "stroke: Black;"/>
  <line x1="   400" y1="   430" x2="   500" y2="   430" style = "stroke: Black;"/>
  <line x1="  2500" y1="   910" x2="  2600" y2="  1110" style = "stroke: Black;"/>
  <line x1="  1150" y1="    30" x2="  1200" y2="    30" style = "stroke: Black;"/>
  <line x1="  2500" y1="   950" x2="  2600" y2="  1110" style = "stroke: Black;"/>
  <line x1="  1150" y1="   110" x2="  1200" y2="   110" style = "stroke: Black;"/>
  <line x1="  2500" y1="   990" x2="  2600" y2="  1110" style = "stroke: Black;"/>
  <line x1="  1150" y1="   190" x2="  1200" y2="   190" style = "stroke: Black;"/>
  <line x1="  2500" y1="  1030" x2="  2600" y2="  1110" style = "stroke: Black;"/>
  <line x1="  1150" y1="   270" x2="  1200" y2="   270" style = "stroke: Black;"/>
  <line x1="  2500" y1="  1070" x2="  2600" y2="  1110" style = "stroke: Black;"/>
  <line x1="  1150" y1="   350" x2="  1200" y2="   350" style = "stroke: Black;"/>
  <line x1="  2500" y1="  1110" x2="  2600" y2="  1110" style = "stroke: Black;"/>
  <line x1="  1000" y1="   430" x2="  1100" y2="   430" style = "stroke: Black;"/>
  <line x1="  2500" y1="  1270" x2="  2600" y2="  1470" style = "stroke: Black;"/>
  <line x1="   900" y1="    30" x2="   950" y2="    30" style = "stroke: Black;"/>
  <line x1="  2500" y1="  1310" x2="  2600" y2="  1470" style = "stroke: Black;"/>
  <line x1="   900" y1="   110" x2="   950" y2="   110" style = "stroke: Black;"/>
  <line x1="  2500" y1="  1350" x2="  2600" y2="  1470" style = "stroke: Black;"/>
  <line x1="   900" y1="   190" x2="   950" y2="   190" style = "stroke: Black;"/>
  <line x1="  2500" y1="  1390" x2="  2600" y2="  1470" style = "stroke: Black;"/>
  <line x1="   900" y1="   270" x2="   950" y2="   270" style = "stroke: Black;"/>
  <line x1="  2500" y1="  1430" x2="  2600" y2="  1470" style = "stroke: Black;"/>
  <line x1="   900" y1="   350" x2="   950" y2="   350" style = "stroke: Black;"/>
  <line x1="  2500" y1="  1470" x2="  2600" y2="  1470" style = "stroke: Black;"/>
  <line x1="   700" y1="   430" x2="   800" y2="   430" style = "stroke: Black;"/>
  <line x1="  1300" y1="   430" x2="  1400" y2="   430" style = "stroke: Black;"/>
  <line x1="   650" y1="    30" x2="   700" y2="    30" style = "stroke: Black;"/>
  <line x1="   650" y1="   110" x2="   700" y2="   110" style = "stroke: Black;"/>
  <line x1="   650" y1="   190" x2="   700" y2="   190" style = "stroke: Black;"/>
  <line x1="   650" y1="   270" x2="   700" y2="   270" style = "stroke: Black;"/>
  <line x1="   650" y1="   350" x2="   700" y2="   350" style = "stroke: Black;"/>
  <line x1="   700" y1="  1950" x2="   200" y2="   430" style = "stroke: Black;"/>
  <line x1="  1000" y1="   830" x2="  1100" y2="   870" style = "stroke: Black;"/>
  <line x1="  1000" y1="  1230" x2="  1100" y2="  1230" style = "stroke: Black;"/>
  <line x1="  2150" y1="   750" x2="  2200" y2="   750" style = "stroke: Black;"/>
  <line x1="   900" y1="   710" x2="   950" y2="   710" style = "stroke: Black;"/>
  <line x1="   400" y1="   670" x2="   450" y2="   670" style = "stroke: Black;"/>
  <line x1="   400" y1="   830" x2="   500" y2="   830" style = "stroke: Black;"/>
  <line x1="   400" y1="  1190" x2="   500" y2="  1190" style = "stroke: Black;"/>
  <line x1="  2200" y1="   430" x2="  2300" y2="   590" style = "stroke: Black;"/>
  <line x1="  2200" y1="   470" x2="  2300" y2="   590" style = "stroke: Black;"/>
  <line x1="  2200" y1="   510" x2="  2300" y2="   590" style = "stroke: Black;"/>
  <line x1="  2200" y1="   550" x2="  2300" y2="   590" style = "stroke: Black;"/>
  <line x1="  2200" y1="   590" x2="  2300" y2="   590" style = "stroke: Black;"/>
  <line x1="   200" y1="    30" x2="   175" y2="    30" style = "stroke: Black;"/>
  <line x1="   175" y1="    30" x2="   175" y2="     0" style = "stroke: Black;"/>
  <line x1="   175" y1="     0" x2="  1425" y2="     0" style = "stroke: Black;"/>
  <line x1="  1425" y1="     0" x2="  1425" y2="    30" style = "stroke: Black;"/>
  <line x1="  1425" y1="    30" x2="  1400" y2="    30" style = "stroke: Black;"/>
  <line x1="   200" y1="   110" x2="   175" y2="   110" style = "stroke: Black;"/>
  <line x1="   175" y1="   110" x2="   175" y2="    80" style = "stroke: Black;"/>
  <line x1="   175" y1="    80" x2="  1425" y2="    80" style = "stroke: Black;"/>
  <line x1="  1425" y1="    80" x2="  1425" y2="   110" style = "stroke: Black;"/>
  <line x1="  1425" y1="   110" x2="  1400" y2="   110" style = "stroke: Black;"/>
  <line x1="   200" y1="   190" x2="   175" y2="   190" style = "stroke: Black;"/>
  <line x1="   175" y1="   190" x2="   175" y2="   160" style = "stroke: Black;"/>
  <line x1="   175" y1="   160" x2="  1425" y2="   160" style = "stroke: Black;"/>
  <line x1="  1425" y1="   160" x2="  1425" y2="   190" style = "stroke: Black;"/>
  <line x1="  1425" y1="   190" x2="  1400" y2="   190" style = "stroke: Black;"/>
  <line x1="   200" y1="   270" x2="   175" y2="   270" style = "stroke: Black;"/>
  <line x1="   175" y1="   270" x2="   175" y2="   240" style = "stroke: Black;"/>
  <line x1="   175" y1="   240" x2="  1425" y2="   240" style = "stroke: Black;"/>
  <line x1="  1425" y1="   240" x2="  1425" y2="   270" style = "stroke: Black;"/>
  <line x1="  1425" y1="   270" x2="  1400" y2="   270" style = "stroke: Black;"/>
  <line x1="   200" y1="   350" x2="   175" y2="   350" style = "stroke: Black;"/>
  <line x1="   175" y1="   350" x2="   175" y2="   320" style = "stroke: Black;"/>
  <line x1="   175" y1="   320" x2="  1425" y2="   320" style = "stroke: Black;"/>
  <line x1="  1425" y1="   320" x2="  1425" y2="   350" style = "stroke: Black;"/>
  <line x1="  1425" y1="   350" x2="  1400" y2="   350" style = "stroke: Black;"/>
  <line x1="   200" y1="   430" x2="   175" y2="   430" style = "stroke: Black;"/>
  <line x1="   175" y1="   430" x2="   175" y2="   400" style = "stroke: Black;"/>
  <line x1="   175" y1="   400" x2="  2525" y2="   400" style = "stroke: Black;"/>
  <line x1="  2525" y1="   400" x2="  2525" y2="   590" style = "stroke: Black;"/>
  <line x1="  2525" y1="   590" x2="  2500" y2="   590" style = "stroke: Black;"/>
  <line x1="   200" y1="   670" x2="   175" y2="   670" style = "stroke: Black;"/>
  <line x1="   175" y1="   670" x2="   175" y2="   640" style = "stroke: Black;"/>
  <line x1="   175" y1="   640" x2="  2675" y2="   640" style = "stroke: Black;"/>
  <line x1="  2675" y1="   640" x2="  2675" y2="   750" style = "stroke: Black;"/>
  <line x1="  2675" y1="   750" x2="  2650" y2="   750" style = "stroke: Black;"/>
  <line x1="   200" y1="   830" x2="   175" y2="   830" style = "stroke: Black;"/>
  <line x1="   175" y1="   830" x2="   175" y2="   800" style = "stroke: Black;"/>
  <line x1="   175" y1="   800" x2="  3125" y2="   800" style = "stroke: Black;"/>
  <line x1="  3125" y1="   800" x2="  3125" y2="  1110" style = "stroke: Black;"/>
  <line x1="  3125" y1="  1110" x2="  3100" y2="  1110" style = "stroke: Black;"/>
  <line x1="   200" y1="  1190" x2="   175" y2="  1190" style = "stroke: Black;"/>
  <line x1="   175" y1="  1190" x2="   175" y2="  1160" style = "stroke: Black;"/>
  <line x1="   175" y1="  1160" x2="  3125" y2="  1160" style = "stroke: Black;"/>
  <line x1="  3125" y1="  1160" x2="  3125" y2="  1470" style = "stroke: Black;"/>
  <line x1="  3125" y1="  1470" x2="  3100" y2="  1470" style = "stroke: Black;"/>
  <text x="   200" y="  2000">Unused Non-Parent Objects:</text>
  <text x="   220" y="  2020">OutdoorAir:Node</text>
  <text x="   220" y="  2040">CHILLED WATER LOOP CNDW TEMP MANAGER</text>
  <text x="   220" y="  2060">DOAS HEATING SUPPLY AIR TEMP MANAGER</text>
  <text x="   220" y="  2080">DOAS COOLING SUPPLY AIR TEMP MANAGER</text>
  <text x="   220" y="  2100">HOT WATER LOOP HW TEMP MANAGER</text>
  <text x="   220" y="  2120">CHILLED WATER LOOP CHW TEMP MANAGER</text>
  <text x="   220" y="  2140">DOAS COOLING COIL AIR TEMP MANAGER</text>
  <text x="   220" y="  2160">DOAS HEATING COIL AIR TEMP MANAGER</text>
  <text x="   220" y="  2180">DOAS HEAT RECOVERY AIR TEMP MANAGER</text>
  <text x="   220" y="  2200">DOAS HEAT RECOVERY ECONOMIZER TEMP MANAGER</text>
  <text x="   220" y="  2220">DOAS COOLING COIL CONTROLLER</text>
  <text x="   220" y="  2240">DOAS HEATING COIL CONTROLLER</text>
  <text x="   220" y="  2260">DOAS OA CONTROLLER</text>
  <text x="   200" y="  2300">
The following are not supported: objects related to controls, AirTerminal:SingleDuct:Uncontrolled, or ZoneHVAC:IdealLoadsAirSystem</text>
</g>
</svg>
